<?xml version='1.0' encoding='utf-8'?>
<svg xmlns="http://www.w3.org/2000/svg" id="Layer_1" data-name="Layer 1" viewBox="0 0 100 100"><defs><style>.cls-1{fill:#231f20;}</style></defs><path class="cls-1" d="M58.83,71H22.15a8.6,8.6,0,0,1-8.59-8.59V37.58A8.59,8.59,0,0,1,22.15,29H58.83a8.59,8.59,0,0,1,8.58,8.58V62.41A8.59,8.59,0,0,1,58.83,71ZM22.15,31a6.6,6.6,0,0,0-6.59,6.58V62.41A6.6,6.6,0,0,0,22.15,69H58.83a6.59,6.59,0,0,0,6.58-6.59V37.58A6.59,6.59,0,0,0,58.83,31Z"/><path class="cls-1" d="M83.38,65.34A3.1,3.1,0,0,1,82,65L65.41,56.23V43.53L82,34.77a3,3,0,0,1,3,.09,3,3,0,0,1,1.45,2.56V62.33a3,3,0,0,1-1.45,2.57A3,3,0,0,1,83.38,65.34ZM67.41,55l15.5,8.2a1,1,0,0,0,1,0,1,1,0,0,0,.48-.86V37.42a1,1,0,0,0-1.46-.88l-15.5,8.2Z"/></svg>